<svg width="27" height="26" viewBox="0 0 27 26" fill="none" xmlns="http://www.w3.org/2000/svg">
<path d="M6.2107e-06 21.5988C0.0124318 19.3244 1.76973 17.3997 4.01902 17.2099C6.39186 17.0097 8.16569 15.402 8.5774 13.0748C8.65386 12.6426 8.67834 12.1969 8.79686 11.7772C9.34955 9.82014 11.2199 8.48133 13.2024 8.59592C15.3278 8.71878 17.0445 10.2409 17.3794 12.2996C17.7845 14.7905 15.9873 17.1227 13.4639 17.3779C11.2697 17.5999 9.7635 18.7214 9.04465 20.8181C8.8743 21.3149 8.84815 21.8614 8.75711 22.3853C8.38908 24.503 6.48546 26.0489 4.30671 25.9988C2.16418 25.9495 0.324096 24.2967 0.0561894 22.1789C0.0318136 21.9862 0.0184753 21.7922 6.2107e-06 21.5988ZM13.0082 14.4129C13.7744 14.4204 14.4184 13.7894 14.4317 13.0179C14.4448 12.2537 13.8148 11.6054 13.0429 11.5888C12.268 11.5721 11.6103 12.2166 11.6071 12.9958C11.6039 13.7637 12.2383 14.4054 13.0082 14.4129ZM4.43656 23.0032C5.20758 22.9975 5.839 22.3586 5.83554 21.5875C5.83207 20.8144 5.19896 20.1827 4.42659 20.1818C3.6456 20.1809 3.00517 20.8289 3.01496 21.6102C3.02463 22.3812 3.66522 23.0088 4.43656 23.0032Z" fill="black"/>
<path d="M18.457 10.6105C17.8145 9.22384 16.7946 8.20581 15.3867 7.55373C16.1148 6.94758 16.6668 6.24052 16.9329 5.3616C17.103 4.79976 17.1768 4.20771 17.2792 3.62662C17.6554 1.49119 19.5561 -0.0546559 21.745 0.00148085C23.8898 0.0564845 25.7153 1.70589 25.985 3.8324C26.3014 6.32846 24.5065 8.56933 22.009 8.79018C20.6398 8.91126 19.4901 9.46351 18.5847 10.5065C18.5625 10.5321 18.5405 10.558 18.516 10.5811C18.505 10.5915 18.4879 10.5956 18.457 10.6105ZM23.0243 4.39438C23.0173 3.62289 22.3798 2.99413 21.6073 2.99677C20.8361 2.9994 20.2038 3.63431 20.2028 4.4071C20.2018 5.18666 20.8579 5.83394 21.6329 5.81805C22.4101 5.80213 23.0313 5.16656 23.0243 4.39438Z" fill="black"/>
</svg>
